<svg width="27.999999999999996" height="27.999999999999996" xmlns="http://www.w3.org/2000/svg" xmlns:xlink="http://www.w3.org/1999/xlink">
 <defs>
  <path d="m0,27l135,0l0,-26.608l-135,0l0,26.608z" id="a"/>
 </defs>
 <g>
  <title>Layer 1</title>
  <mask stroke="null" fill="#fff" id="b">
   <use stroke="null" id="svg_5" xlink:href="#a"/>
  </mask>
  <path stroke="null" id="svg_6" mask="url(#b)" fill="#000" d="m-64.95926,27.049l4.615,0l0,-17.588l-4.615,0l0,17.588zm2.307,-20.63c-0.792,0 -1.457,-0.262 -1.993,-0.786a2.568,2.568 0 0 1 -0.804,-1.906c0,-0.769 0.268,-1.416 0.804,-1.941c0.536,-0.524 1.201,-0.786 1.993,-0.786s1.457,0.262 1.993,0.786c0.536,0.525 0.805,1.172 0.805,1.941c0,0.747 -0.269,1.381 -0.805,1.906c-0.536,0.524 -1.201,0.786 -1.993,0.786zm17.973,20.63l-4.407,0c-3.193,0 -4.79,-1.597 -4.79,-4.79l0,-9.057l-3.077,0l0,-3.74l3.077,0l0,-4.65l4.617,0l0,4.65l4.37,0l0,3.74l-4.37,0l0,8.252c0,1.212 0.582,1.82 1.748,1.82l2.832,0l0,3.775zm12.027,-3.287c1.49,0 2.692,-0.513 3.602,-1.538c0.908,-1.025 1.363,-2.355 1.363,-3.986c0,-1.61 -0.455,-2.925 -1.363,-3.952c-0.91,-1.025 -2.111,-1.538 -3.602,-1.538c-1.47,0 -2.657,0.513 -3.566,1.538c-0.91,1.027 -1.364,2.343 -1.364,3.952c0,1.63 0.455,2.96 1.364,3.986c0.909,1.025 2.097,1.538 3.566,1.538m0,3.846c-1.888,0 -3.566,-0.402 -5.035,-1.206c-1.468,-0.804 -2.617,-1.911 -3.444,-3.322c-0.828,-1.41 -1.241,-3.024 -1.241,-4.842c0,-1.82 0.413,-3.433 1.24,-4.843c0.828,-1.41 1.977,-2.512 3.445,-3.305c1.469,-0.792 3.147,-1.188 5.035,-1.188c1.91,0 3.602,0.396 5.07,1.188a8.71,8.71 0 0 1 3.444,3.305c0.827,1.41 1.24,3.024 1.24,4.843c0,1.818 -0.413,3.432 -1.24,4.842c-0.828,1.41 -1.975,2.518 -3.444,3.322c-1.468,0.804 -3.16,1.206 -5.07,1.206m24.3,-18.461l0,4.195l-0.944,0c-1.631,0 -2.936,0.485 -3.915,1.45c-0.98,0.969 -1.47,2.548 -1.47,4.74l0,7.517l-4.615,0l0,-17.588l4.58,0l0,3.462c0.396,-0.956 0.91,-1.708 1.54,-2.255a5.76,5.76 0 0 1 2.044,-1.171a7.094,7.094 0 0 1 2.151,-0.35l0.63,0l-0.001,0zm15.594,-7.098l-6.501,0l9.25,12.5l-9.25,12.5l6.501,0l9.25,-12.5l-9.25,-12.5zm10.804,10.399l7.695,-10.4l-6.5,0l-4.445,6.006l3.25,4.394zm0.001,4.203l-3.25,4.393l4.443,6.005l6.5,0l-7.693,-10.398z"/>
 </g>
</svg>