<svg xmlns="http://www.w3.org/2000/svg" width="144.083" height="144" enable-background="new 0 0 144.083 144" viewBox="0 0 144.083 144"><path d="M72.041,11.166c-33.544,0-60.833,27.29-60.833,60.834s27.289,60.834,60.833,60.834s60.835-27.29,60.835-60.834  S105.584,11.166,72.041,11.166z M72.041,126.834c-30.235,0-54.833-24.599-54.833-54.834s24.598-54.834,54.833-54.834  S126.875,41.765,126.875,72S102.276,126.834,72.041,126.834z"/><path d="M76.209,90.111c0-5.387,0-22.414,0-22.414h16.879V54.929H76.045V37.721L65.03,37.775c0,0-0.932,15.235-14.632,18.358v9.646  h9.151c0,0,0,20.302,0,26.47c0,5.809,5.207,14.027,17.045,14.027c13.498,0,16.549-3.561,16.549-3.561V92.688  c0,0-2.393,1.863-6.484,2.375C82.739,95.553,78.004,95.072,76.209,90.111z"/></svg>