<?xml version="1.0" encoding="utf-8"?>
<!-- Generator: Adobe Illustrator 25.2.3, SVG Export Plug-In . SVG Version: 6.00 Build 0)  -->
<svg version="1.1" id="logo" xmlns="http://www.w3.org/2000/svg" xmlns:xlink="http://www.w3.org/1999/xlink" x="0px" y="0px"
	 viewBox="0 0 311 311" style="enable-background:new 0 0 311 311;" xml:space="preserve">
<style type="text/css">
	.st0{fill:#000000;}
	.st1{fill:#FFFFFF;}
</style>
<circle class="st0" cx="155.5" cy="155.5" r="155.5"/>
<g>
	<path class="st1" d="M173.1,110.1c-4.7,2.3-6.7,6.7-6.7,18.6c0,0,2.3-2.3,6.1-3.8c2.7-1,4.7-2.3,6.1-3.4c4.1-3,4.7-6.7,4.7-13.1
		C183.2,108.4,176.8,108,173.1,110.1z"/>
	<path class="st1" d="M144.4,112.8c-4.1,3.4-5.1,9.1-5.1,9.1l-13.1,50.3l-10.8-41.2c-1-4.4-3-9.8-6.1-13.5
		c-3.8-4.8-11.6-5.1-12.5-5.1c-0.7,0-8.4,0.3-12.5,5.1c-3,3.8-5.1,9.1-6.1,13.5l-10.2,41.2l-13.1-50.3c0,0-1-5.4-5.1-9.1
		c-6.4-5.8-15.9-4.4-15.9-4.4l25,94.2c0,0,8.1,0.7,12.2-1.3c5.4-2.7,8.1-4.7,11.2-17.6c3-11.5,11.2-44.9,11.8-47.3
		c0.3-1,1-4.1,3-4.1c2,0,2.7,2.7,3,4.1c0.7,2.3,8.8,35.8,11.8,47.3c3.4,12.8,5.7,14.8,11.2,17.6c4.1,2,12.2,1.3,12.2,1.3l24.8-94.2
		C160.3,108.4,150.8,107.1,144.4,112.8z"/>
	<path class="st1" d="M183.2,123.6c0,0-1.7,2.3-5.1,4.4c-2.3,1.3-4.4,2-6.7,3.4c-4.1,2-5.1,4.1-5.1,7.1v1v5.1l0,0v1v56.7
		c0,0,6.4,0.7,10.5-1.3c5.4-2.7,6.4-5.4,6.4-16.9v-56.7l0,0L183.2,123.6L183.2,123.6z"/>
	<path class="st1" d="M245.3,155.7l31.7-47c0,0-13.1-2.3-19.9,3.8c-4.4,3.8-8.8,10.8-8.8,10.8l-11.5,16.9c-0.7,1-1.3,1.7-2.3,1.7
		c-1,0-2-1-2.3-1.7l-11.5-16.9c0,0-4.7-6.7-8.8-10.8c-6.7-6.1-19.9-3.8-19.9-3.8l30.7,46.9l-31.4,46.9c0,0,13.8,1.7,20.6-4.4
		c4.4-3.8,8.4-10.2,8.4-10.2l11.5-16.9c0.7-1,1.3-1.7,2.3-1.7c1,0,2,1,2.3,1.7L248,188c0,0,4.4,6.4,8.4,10.2
		c6.7,6.1,20.2,4.4,20.2,4.4L245.3,155.7z"/>
</g>
</svg>
